PathFileType	4	(X/Y/Z)	path1_03_0-527.trc
DataRate	CameraRate	NumFrames	NumMarkers	Units	OrigDataRate	OrigDataStartFrame	OrigNumFrames
30	30	7	22	m	30	329	527
Frame#	Time	Hip			RHip			RKnee			RAnkle			RBigToe			RSmallToe			RHeel			LHip			LKnee			LAnkle			LBigToe			LSmallToe			LHeel			Neck			Head			Nose			RShoulder			RElbow			RWrist			LShoulder			LElbow			LWrist		
		X1	Y1	Z1	X2	Y2	Z2	X3	Y3	Z3	X4	Y4	Z4	X5	Y5	Z5	X6	Y6	Z6	X7	Y7	Z7	X8	Y8	Z8	X9	Y9	Z9	X10	Y10	Z10	X11	Y11	Z11	X12	Y12	Z12	X13	Y13	Z13	X14	Y14	Z14	X15	Y15	Z15	X16	Y16	Z16	X17	Y17	Z17	X18	Y18	Z18	X19	Y19	Z19	X20	Y20	Z20	X21	Y21	Z21	X22	Y22	Z22
330	11.0	2.63048337734956	0.830369504348862	0.6849047219550559	2.637936071922582	0.7955590563089596	0.6119804093342365	2.616835573923113	0.4690806390526289	0.5891641358539614	2.693714155880581	0.09604975017501174	0.6226279658596319	2.4961101845735323	0.031232097100915106	0.5740042844189482	2.5356815041864595	0.0260580910023608	0.5195880213337444	2.7413803476500407	0.02707443063175252	0.6246838406588082	2.6262914982538974	0.7988423524136458	0.7732962955889561	2.6382882450312546	0.4329013691725541	0.7626247871383445	2.683478040949279	0.0992358256901845	0.7743369177812481	2.531049184902993	0.004919869194497095	0.7875656891218391	2.530929502185688	0.028182865756702903	0.8341355833662413	2.735208943431765	0.028404727625888998	0.772617225064203	2.5701055055523234	1.4561458562436354	0.6912135704608237	2.5002339377309983	1.6867931029836511	0.6666229351204558	2.4300834611363338	1.5957587581435726	0.6673666342596992	2.6318149644532287	1.3593116605863185	0.5256235764908351	2.654482963898885	1.070216165512071	0.4969665829667057	2.6031298258679434	0.8415351753261751	0.46456606830549857	2.5960363124833448	1.3483060525913315	0.8465705221843315	2.6436437323244757	1.0731250254423883	0.8845063900870695	2.6354559823619086	0.842600171123338	0.8873374071671243
331	11.033333333333331	2.6299669465028255	0.8311068428442795	0.6846093838837786	2.636933043188641	0.7974205959332707	0.6117560999701127	2.6161880018485673	0.4697270398799734	0.5893130182716018	2.6927971838568876	0.09651063462873091	0.6224203374367672	2.495794858359792	0.03195931991354395	0.5742348236046307	2.5353881325561387	0.026570623922698718	0.5199979548967119	2.741119907359772	0.027002966026426555	0.6261616079361805	2.6264102993681586	0.8007053436357533	0.77335769581784	2.6369155966496	0.4345476901235797	0.7630187027054895	2.68504574945415	0.09878846847468176	0.7767995467136035	2.529842657251731	0.006775335410041821	0.7913679184927902	2.5302695066810945	0.029087063575666136	0.8348878538771413	2.736682254768559	0.028143311785738624	0.7742744575236182	2.5675254019210936	1.4537289016846076	0.6890935132263709	2.4981772742054513	1.6860199595050398	0.6682254508299821	2.430009227910163	1.5952482402527606	0.6681125995931719	2.630756610808119	1.359492549404488	0.525293971546342	2.648221730442139	1.0713220526485132	0.4875337848858126	2.6023985490105765	0.8409004834225224	0.464864603665644	2.5942277883517	1.3482388071964893	0.8477666988814245	2.643126953019852	1.0730155849151837	0.884214933637735	2.635088125259649	0.8428441184333504	0.8870112051924565
332	11.066666666666666	2.629246680232936	0.8316999340380028	0.6842167773136528	2.635915123212429	0.7987931718076842	0.6113320046390519	2.615760100439846	0.4702306588381091	0.5894186267747304	2.6917281190012434	0.09710888585755252	0.6217399484645243	2.49551490345689	0.03241697594602394	0.5743065067998365	2.5350202213456607	0.02685015448911914	0.5202639187630982	2.7408851605690217	0.02645291838744091	0.6264258346881174	2.6261513786366293	0.8020763272186914	0.7731327464400862	2.63516085529124	0.4363461439914325	0.7635962822637259	2.6853118354276306	0.09939955020518859	0.7790369934995274	2.5273296230089053	0.009154046244108724	0.794173268131625	2.529078069980875	0.030188901742219932	0.8354396608980403	2.7374426748835723	0.02810056937310239	0.7757559841476354	2.565637536963345	1.4520300107097135	0.6875518696162044	2.496768060799048	1.6857214882249154	0.6690551335485103	2.4298717652392234	1.59488505894777	0.6690045734784476	2.62984592752624	1.3596080368382997	0.5250059017748602	2.642794563679725	1.0722288996429703	0.47937972999592804	2.6017604564146706	0.84042543867657	0.4650963881482988	2.590781194627142	1.3476252457852465	0.8510613923048627	2.642636505522613	1.0728694651273454	0.8840741487805888	2.6346520261448942	0.843018568505258	0.8867607605774693
333	11.1	2.628416786074375	0.8319824271261258	0.6838332400657392	2.6349653082535167	0.7994069659754327	0.6107695723906355	2.615586932186165	0.4704480210498854	0.5894266837587114	2.69092172921938	0.09759915148508176	0.6210252140040666	2.4954258801931397	0.032505581650286455	0.5741472579104063	2.534791518994984	0.02684026719739275	0.5202994578042589	2.740733989863463	0.02566371771069154	0.6257599837363784	2.625513795196195	0.8026369650477104	0.7726317510438251	2.633554550808006	0.4378036455199742	0.7641639014658731	2.684526365814684	0.10062285808619746	0.7804459645480764	2.5247997577289127	0.010786295056291367	0.7953609691718093	2.527898433785845	0.03102636548642843	0.8356205149636374	2.737398978298461	0.028228841923885407	0.7766630930715257	2.564859693848716	1.4516034422999362	0.6869795723290393	2.4967187282930676	1.6865054777538158	0.6679789893602316	2.4295335556741877	1.5946925145765967	0.6696869375380827	2.6292198071307444	1.359607316994998	0.5248252205639089	2.6392151076342665	1.0727802667886834	0.4740668247493154	2.6013012998856833	0.8401965880459852	0.4651422273674334	2.5867576142105713	1.3467395655930663	0.8550979692531182	2.6421658249460465	1.072733071634126	0.8840456657502375	2.634189492587211	0.8430291336946635	0.8866433364216844
334	11.133333333333333	2.6276147030346824	0.8318950223645489	0.6835609745295318	2.6341769011931913	0.7992825616367316	0.6101395139257889	2.6156173560376583	0.47030590996818955	0.5892950442735839	2.6905360015020046	0.0978568708100461	0.6204177580957846	2.4956855512896525	0.03218674953998984	0.5737397796789636	2.534881141278624	0.026550704995655348	0.5200795032601404	2.740699309201152	0.024828459393931832	0.6245082853797529	2.624630084542274	0.8023463852300349	0.7719504547402268	2.632884901050156	0.43835617625132356	0.7644401513445493	2.6832511901698908	0.10189204245410367	0.7809315649206384	2.5235095302809607	0.01075692524397706	0.7952265023167372	2.5271967889636993	0.031244250773325183	0.8353774297947263	2.736820485319979	0.028412447519091978	0.7769395099652927	2.56528938461006	1.452573613195721	0.6874529353126364	2.4977613092947824	1.6881961150272162	0.6651628965301448	2.428962285573545	1.594580948329734	0.6699103973175398	2.6288822564897125	1.359473722112001	0.5247464989762767	2.6377096639180295	1.0729241183646752	0.4719178639849654	2.601020824311229	0.8402104825416887	0.4649971407437066	2.583228576928282	1.3458155279448618	0.8585967541066425	2.641741724938766	1.0725650222929708	0.8840594280579469	2.6337309415447057	0.8427795109267802	0.8867016746384245
335	11.166666666666666	2.6269605415160533	0.8314855622808812	0.6834257200881544	2.633630389393805	0.7987145572263248	0.6095000365190335	2.615714381476931	0.46986236272499654	0.5890551308855825	2.6901386283338264	0.09819708755356708	0.6193348354076236	2.4963057739743277	0.03154113538729506	0.5731666448904339	2.5352570517944257	0.026094659172214013	0.5196599572056154	2.7408031628145983	0.02403646834025521	0.622946556079381	2.6236374860456175	0.8014719171505871	0.7712396791436646	2.6334912713117733	0.4378257516372598	0.7643542592736727	2.681758778945357	0.10291095101609787	0.780509869465282	2.5235751961927497	0.00914354167567363	0.7939878920054624	2.5270901969132105	0.030775873491332626	0.8347740191723765	2.7358421417873955	0.028564040620718507	0.776642142848915	2.5663997814049457	1.4542965692398158	0.6884472833431735	2.498634001742406	1.6897260774620102	0.662235080232427	2.4282243931644882	1.5943909857373828	0.6696527394590047	2.628757508398689	1.359238995726785	0.5247074001457516	2.6380140101790466	1.072636846508907	0.47246459857599105	2.600859994110074	0.8403498432022908	0.46474278722668433	2.5805690577587996	1.344943338153519	0.8610061833773591	2.641373929189583	1.0722494907854894	0.8840364889558625	2.633283038349187	0.842222633765004	0.886919652615406
336	11.2	2.62652595695111	0.8308668277526675	0.683366464228546	2.633334406613667	0.7981529359962801	0.6088701671920639	2.6156661100894656	0.4692955417399183	0.5887982624826632	2.68926939011196	0.09902492308990199	0.6173191883782327	2.497127974820768	0.030777777159260316	0.5726356338899953	2.535684508058867	0.025677463877512935	0.519177653523917	2.7410972501080906	0.023484707987180605	0.6216453378347884	2.6226276883291257	0.8005075089806217	0.7706516604374174	2.6348522571533817	0.436743815012691	0.7642503385632574	2.680120722740505	0.10359913460538181	0.7793039085498035	2.5239771309750703	0.00698839698589016	0.7916570709797932	2.527350973684804	0.02988522804608327	0.8339953016889818	2.7344827962778258	0.02862897805937679	0.7759303237926369	2.5670894581023136	1.4554928235309856	0.6889187549417262	2.4980650500507826	1.6899552867644678	0.6610063689159339	2.427453834923711	1.5940020601714557	0.6690847800586852	2.628697560434525	1.3589723216071214	0.5245862534071076	2.6396032207152023	1.0718882821345541	0.4748633992224718	2.600750350502919	0.8403858154154857	0.46444486549765024	2.5786027465506147	1.3441380639995006	0.8623456929389567	2.6409919099775276	1.0716857844849976	0.8839008033294046	2.6328284312165082	0.8413841115265531	0.8872156150988616
